<svg width="700" height="512" viewBox="0 0 700 512" fill="none" xmlns="http://www.w3.org/2000/svg">
<g clip-path="url(#clip0)">
<path d="M238.265 359.666C268.502 359.666 293.013 335.596 293.013 305.905C293.013 276.214 268.502 252.144 238.265 252.144C208.029 252.144 183.517 276.214 183.517 305.905C183.517 335.596 208.029 359.666 238.265 359.666Z" fill="#E5E5E5"/>
<path opacity="0.2" d="M197.841 269.997C192.734 281.727 192.042 294.858 195.887 307.044C199.732 319.229 207.864 329.675 218.83 336.515C229.797 343.355 242.882 346.143 255.749 344.381C268.616 342.618 280.426 336.421 289.067 326.896C285.948 334.062 281.279 340.477 275.384 345.696C269.489 350.915 262.509 354.813 254.928 357.12C247.346 359.427 239.345 360.087 231.477 359.056C223.61 358.025 216.065 355.327 209.365 351.148C202.666 346.969 196.971 341.41 192.676 334.856C188.382 328.301 185.59 320.908 184.493 313.189C183.397 305.47 184.023 297.609 186.328 290.151C188.633 282.693 192.561 275.816 197.841 269.997V269.997Z" fill="black"/>
<path d="M238.416 305.904H238.566L241.274 458.325H235.558L238.416 305.904Z" fill="#CBCBCB"/>
<path d="M333.651 283.784C370.071 283.784 399.595 254.793 399.595 219.03C399.595 183.267 370.071 154.276 333.651 154.276C297.232 154.276 267.708 183.267 267.708 219.03C267.708 254.793 297.232 283.784 333.651 283.784Z" fill="#E5E5E5"/>
<path opacity="0.2" d="M382.342 175.779C388.493 189.908 389.327 205.724 384.696 220.402C380.065 235.079 370.269 247.661 357.061 255.9C343.852 264.138 328.09 267.496 312.592 265.374C297.094 263.251 282.87 255.786 272.461 244.313C276.218 252.945 281.842 260.672 288.943 266.958C296.043 273.244 304.45 277.939 313.582 280.718C322.714 283.496 332.351 284.292 341.827 283.05C351.303 281.808 360.391 278.558 368.461 273.525C376.531 268.491 383.39 261.796 388.563 253.901C393.736 246.006 397.099 237.102 398.419 227.804C399.739 218.506 398.985 209.038 396.209 200.055C393.433 191.072 388.701 182.788 382.342 175.779V175.779Z" fill="black"/>
<path d="M333.47 219.03H333.289L330.028 402.618H336.913L333.47 219.03Z" fill="#CBCBCB"/>
<path d="M211.236 158.375L220.189 151.343C213.233 150.589 210.376 154.314 209.206 157.262C203.772 155.047 197.856 157.951 197.856 157.951L215.771 164.337C214.867 161.966 213.294 159.898 211.236 158.375V158.375Z" fill="#CBCBCB"/>
<path d="M188.666 97.6952L197.62 90.6632C190.664 89.9097 187.806 93.6347 186.636 96.583C181.202 94.3674 175.287 97.2711 175.287 97.2711L193.201 103.657C192.297 101.287 190.724 99.2188 188.666 97.6952Z" fill="#CBCBCB"/>
<path d="M315.503 136.927L324.456 129.895C317.501 129.141 314.643 132.866 313.473 135.815C308.039 133.599 302.124 136.503 302.124 136.503L320.038 142.889C319.134 140.519 317.561 138.45 315.503 136.927V136.927Z" fill="#CBCBCB"/>
<path d="M306.655 402.337C306.655 402.337 306.998 395.288 314.021 396.107Z" fill="#CBCBCB"/>
<path d="M354.363 402.337C354.363 402.337 354.706 395.288 361.729 396.107Z" fill="#CBCBCB"/>
<path d="M340.472 402.337C340.472 402.337 340.815 395.288 347.838 396.107Z" fill="#CBCBCB"/>
<path d="M293.876 402.337C293.876 402.337 293.533 395.288 286.51 396.107Z" fill="#CBCBCB"/>
<path d="M323.642 402.824C323.642 402.824 323.3 395.775 316.277 396.594Z" fill="#CBCBCB"/>
<path d="M214.384 457.708C214.384 457.708 214.727 450.659 221.75 451.478Z" fill="#CBCBCB"/>
<path d="M262.092 457.708C262.092 457.708 262.435 450.659 269.458 451.478Z" fill="#CBCBCB"/>
<path d="M248.201 457.708C248.201 457.708 248.544 450.659 255.567 451.478Z" fill="#CBCBCB"/>
<path d="M201.605 457.708C201.605 457.708 201.262 450.659 194.239 451.478Z" fill="#CBCBCB"/>
<path d="M231.371 458.195C231.371 458.195 231.029 451.146 224.006 451.966Z" fill="#CBCBCB"/>
<path d="M576.383 127.274H484.578V135.307H576.383V127.274Z" fill="#3F3D56"/>
<path d="M576.383 156.867H484.578V164.9H576.383V156.867Z" fill="#3F3D56"/>
<path d="M576.383 183.377H484.578V191.41H576.383V183.377Z" fill="#3F3D56"/>
<path d="M450.046 131.29C450.046 129.217 450.672 127.191 451.845 125.467C453.018 123.744 454.684 122.4 456.635 121.607C458.585 120.814 460.731 120.606 462.802 121.011C464.872 121.415 466.774 122.413 468.267 123.879C469.759 125.345 470.776 127.212 471.188 129.246C471.599 131.279 471.388 133.386 470.58 135.301C469.772 137.216 468.404 138.853 466.649 140.005C464.894 141.156 462.83 141.771 460.719 141.771V141.771C457.889 141.768 455.177 140.663 453.176 138.698C451.175 136.733 450.049 134.069 450.046 131.29V131.29Z" fill="#6C63FF"/>
<path d="M450.046 160.883C450.046 158.81 450.672 156.784 451.845 155.061C453.018 153.337 454.684 151.994 456.635 151.2C458.585 150.407 460.731 150.199 462.802 150.604C464.872 151.008 466.774 152.006 468.267 153.472C469.759 154.938 470.776 156.806 471.188 158.839C471.599 160.872 471.388 162.979 470.58 164.894C469.772 166.809 468.404 168.446 466.649 169.598C464.894 170.75 462.83 171.364 460.719 171.364C457.89 171.361 455.177 170.256 453.176 168.291C451.175 166.326 450.049 163.662 450.046 160.883V160.883Z" fill="#6C63FF"/>
<path d="M450.046 187.394C450.046 185.321 450.672 183.295 451.845 181.571C453.018 179.847 454.684 178.504 456.635 177.711C458.585 176.918 460.731 176.71 462.802 177.114C464.872 177.519 466.774 178.517 468.267 179.983C469.759 181.449 470.776 183.316 471.188 185.349C471.599 187.382 471.388 189.49 470.58 191.405C469.772 193.32 468.404 194.957 466.649 196.108C464.894 197.26 462.83 197.875 460.719 197.875V197.875C457.89 197.872 455.177 196.766 453.176 194.802C451.175 192.837 450.049 190.173 450.046 187.394V187.394Z" fill="#6C63FF"/>
<path d="M360.078 201.846L358.729 200.817L393.287 157.123H438.483V158.801H394.123L360.078 201.846Z" fill="#3F3D56"/>
<path d="M91.8059 222.914H0V230.948H91.8059V222.914Z" fill="#3F3D56"/>
<path d="M91.8059 252.508H0V260.541H91.8059V252.508Z" fill="#3F3D56"/>
<path d="M91.8059 279.018H0V287.051H91.8059V279.018Z" fill="#3F3D56"/>
<path d="M115.664 237.412C113.553 237.412 111.489 236.797 109.734 235.646C107.979 234.494 106.611 232.857 105.803 230.942C104.995 229.027 104.784 226.919 105.196 224.886C105.608 222.853 106.624 220.986 108.117 219.52C109.609 218.054 111.511 217.056 113.582 216.651C115.652 216.247 117.798 216.455 119.749 217.248C121.699 218.041 123.366 219.385 124.539 221.108C125.711 222.832 126.337 224.858 126.337 226.931C126.337 228.307 126.061 229.67 125.525 230.942C124.988 232.213 124.202 233.369 123.211 234.342C122.22 235.315 121.043 236.087 119.749 236.614C118.454 237.141 117.066 237.412 115.664 237.412Z" fill="#6C63FF"/>
<path d="M115.664 267.005C113.553 267.005 111.489 266.39 109.734 265.239C107.979 264.087 106.611 262.45 105.803 260.535C104.995 258.62 104.784 256.512 105.196 254.479C105.608 252.446 106.624 250.579 108.117 249.113C109.61 247.647 111.511 246.649 113.582 246.245C115.652 245.84 117.798 246.048 119.749 246.841C121.699 247.634 123.366 248.978 124.539 250.701C125.711 252.425 126.337 254.451 126.337 256.524C126.337 257.901 126.061 259.263 125.525 260.535C124.989 261.807 124.202 262.962 123.211 263.935C122.22 264.908 121.043 265.681 119.748 266.207C118.454 266.734 117.066 267.005 115.664 267.005H115.664Z" fill="#6C63FF"/>
<path d="M115.664 293.516C113.553 293.516 111.489 292.901 109.734 291.749C107.979 290.597 106.611 288.961 105.803 287.045C104.995 285.13 104.784 283.023 105.196 280.99C105.608 278.957 106.624 277.089 108.117 275.623C109.61 274.158 111.511 273.16 113.582 272.755C115.652 272.351 117.798 272.558 119.749 273.352C121.699 274.145 123.366 275.488 124.539 277.212C125.711 278.935 126.337 280.962 126.337 283.035C126.337 284.411 126.061 285.774 125.525 287.045C124.989 288.317 124.202 289.472 123.211 290.446C122.22 291.419 121.043 292.191 119.749 292.718C118.454 293.244 117.066 293.516 115.664 293.516H115.664Z" fill="#6C63FF"/>
<path d="M216.306 297.486L182.26 254.441H137.901V252.763H183.096L183.353 253.088L217.655 296.458L216.306 297.486Z" fill="#3F3D56"/>
<path d="M410.637 6.46429H318.832V14.4975H410.637V6.46429Z" fill="#3F3D56"/>
<path d="M410.637 36.0574H318.832V44.0906H410.637V36.0574Z" fill="#3F3D56"/>
<path d="M410.637 62.5679H318.832V70.6011H410.637V62.5679Z" fill="#3F3D56"/>
<path d="M284.3 10.4809C284.3 8.40798 284.926 6.3816 286.099 4.65803C287.272 2.93445 288.939 1.5911 290.889 0.797822C292.839 0.00454816 294.985 -0.203018 297.056 0.201391C299.126 0.6058 301.028 1.60401 302.521 3.06979C304.013 4.53557 305.03 6.40309 305.442 8.43619C305.854 10.4693 305.642 12.5766 304.834 14.4918C304.027 16.4069 302.659 18.0438 300.903 19.1954C299.148 20.3471 297.084 20.9618 294.973 20.9618V20.9618C292.144 20.9587 289.431 19.8535 287.43 17.8886C285.429 15.9237 284.303 13.2597 284.3 10.4809V10.4809Z" fill="#6C63FF"/>
<path d="M284.3 40.074C284.3 38.0011 284.926 35.9747 286.099 34.2511C287.272 32.5276 288.939 31.1842 290.889 30.3909C292.839 29.5976 294.985 29.3901 297.056 29.7945C299.126 30.1989 301.028 31.1971 302.521 32.6629C304.013 34.1286 305.03 35.9962 305.442 38.0293C305.854 40.0623 305.642 42.1697 304.834 44.0848C304.027 46 302.659 47.6369 300.903 48.7885C299.148 49.9402 297.084 50.5549 294.974 50.5549V50.5549C292.144 50.5518 289.431 49.4466 287.43 47.4817C285.429 45.5168 284.303 42.8528 284.3 40.074Z" fill="#6C63FF"/>
<path d="M284.3 66.5845C284.3 64.5116 284.926 62.4852 286.099 60.7616C287.272 59.0381 288.939 57.6947 290.889 56.9014C292.839 56.1081 294.985 55.9006 297.056 56.305C299.126 56.7094 301.028 57.7076 302.521 59.1734C304.013 60.6392 305.03 62.5067 305.442 64.5398C305.854 66.5729 305.642 68.6802 304.834 70.5954C304.027 72.5105 302.659 74.1474 300.903 75.299C299.148 76.4507 297.084 77.0654 294.974 77.0654C292.144 77.0623 289.431 75.9571 287.43 73.9922C285.429 72.0273 284.303 69.3633 284.3 66.5845V66.5845Z" fill="#6C63FF"/>
<path d="M194.332 81.0363L192.983 80.0077L227.541 36.3133H272.737V37.9912H228.377L194.332 81.0363Z" fill="#3F3D56"/>
<path d="M647.121 506.157H641.355L638.612 484.315H647.123L647.121 506.157Z" fill="#FFB7B7"/>
<path d="M648.593 511.646L629.998 511.646V511.415C629.998 509.53 630.761 507.722 632.118 506.389C633.475 505.057 635.316 504.308 637.235 504.308H637.236L648.593 504.308L648.593 511.646Z" fill="#2F2E41"/>
<path d="M622.345 506.157H616.579L613.836 484.315H622.347L622.345 506.157Z" fill="#FFB7B7"/>
<path d="M623.816 511.646L605.221 511.646V511.415C605.222 509.53 605.984 507.722 607.341 506.389C608.699 505.057 610.54 504.308 612.459 504.308H612.459L623.816 504.308L623.816 511.646Z" fill="#2F2E41"/>
<path d="M609.218 362.857L601.404 375.059L614.52 498.182L628.227 498.996L631.11 392.657L635.916 449.498L634.017 498.996L648.13 499.668L656.515 427.854L662.829 371.056L650.441 359.73L609.218 362.857Z" fill="#060B26"/>
<path d="M645.741 269.542L624.382 270.381L604.591 366.26C604.591 366.26 636.761 381.936 649.795 367.687L657.628 362.051L645.741 269.542Z" fill="#6C63FF"/>
<path d="M645.741 269.542L664.537 280.299L657.593 325.333L663.682 371.25L643.906 368.085C643.906 368.085 639.857 325.333 642.485 311.909C645.112 298.486 645.741 269.542 645.741 269.542Z" fill="#060B26"/>
<path d="M624.382 270.381L601.891 281.717L603.605 331.591L591.997 369.377C591.997 369.377 615.143 376.65 619.122 365.254C623.101 353.857 624.382 270.381 624.382 270.381Z" fill="#060B26"/>
<path d="M654.756 382.613C655.506 382.254 656.167 381.738 656.692 381.101C657.217 380.464 657.593 379.721 657.794 378.926C657.995 378.131 658.016 377.302 657.856 376.498C657.696 375.694 657.358 374.934 656.866 374.272L663.654 363.334L657.891 357.663L648.526 373.241C647.448 374.126 646.739 375.368 646.532 376.733C646.324 378.097 646.634 379.489 647.402 380.644C648.17 381.799 649.343 382.638 650.698 383.001C652.054 383.364 653.498 383.226 654.756 382.613V382.613Z" fill="#FFB7B7"/>
<path d="M654.783 286.433L663.743 279.46C663.743 279.46 672.217 286.27 672.008 292.798C671.799 299.325 674.336 334.097 674.336 334.097L660.353 375.427L649.939 367.246L662.138 334.981L652.525 307.448L654.783 286.433Z" fill="#060B26"/>
<path d="M596.851 384.561C596.16 384.101 595.58 383.499 595.151 382.796C594.723 382.092 594.457 381.305 594.372 380.49C594.287 379.675 594.385 378.852 594.659 378.078C594.933 377.304 595.377 376.598 595.958 376.011L590.807 364.244L597.325 359.425L604.363 376.143C605.303 377.168 605.827 378.497 605.837 379.876C605.846 381.256 605.34 382.591 604.414 383.628C603.488 384.666 602.207 385.334 600.813 385.506C599.419 385.677 598.009 385.341 596.851 384.561V384.561Z" fill="#FFB7B7"/>
<path d="M610.616 289.336L602.745 281.193C602.745 281.193 593.379 286.763 592.65 293.255C591.92 299.746 584.423 333.821 584.423 333.821L592.34 376.673L603.823 370.013L596.373 336.382L609.838 310.453L610.616 289.336Z" fill="#060B26"/>
<path d="M635.743 263.275C643.8 263.275 650.332 256.862 650.332 248.95C650.332 241.038 643.8 234.624 635.743 234.624C627.686 234.624 621.155 241.038 621.155 248.95C621.155 256.862 627.686 263.275 635.743 263.275Z" fill="#FFB7B7"/>
<path d="M632.215 236.229C630.742 235.974 629.284 236.632 627.919 237.233C626.554 237.833 625.028 238.402 623.598 237.972C622.939 237.727 622.348 237.331 621.876 236.817C621.404 236.303 621.064 235.685 620.883 235.016C620.536 233.675 620.412 232.288 620.515 230.909L622.069 231.79L621.008 230.039L636.147 228.396C640.728 227.898 645.864 227.552 649.426 230.422C651.242 232.041 652.564 234.124 653.245 236.437C656.267 245.522 659.699 258.76 644.187 261.461C642.025 260.873 645.551 253.058 645.515 250.856C645.48 248.653 644.245 246.177 642.028 245.839L640.405 248.056C641.444 246.637 637.757 242.03 636.839 241.131C636.015 240.444 635.27 239.67 634.62 238.821C633.887 237.719 633.879 236.518 632.215 236.229Z" fill="#2F2E41"/>
<path d="M699.146 512H546.215C545.989 512 545.771 511.912 545.611 511.754C545.451 511.597 545.361 511.384 545.361 511.161C545.361 510.939 545.451 510.725 545.611 510.568C545.771 510.41 545.989 510.322 546.215 510.322H699.146C699.372 510.322 699.59 510.41 699.75 510.568C699.91 510.725 700 510.939 700 511.161C700 511.384 699.91 511.597 699.75 511.754C699.59 511.912 699.372 512 699.146 512Z" fill="#CBCBCB"/>
</g>
<defs>
<clipPath id="clip0">
<rect width="700" height="512" fill="white"/>
</clipPath>
</defs>
</svg>
